<?xml version="1.0" encoding="UTF-8" standalone="no"?>
<svg width="999px" height="879px" viewBox="0 0 999 879" version="1.1" xmlns="http://www.w3.org/2000/svg" xmlns:xlink="http://www.w3.org/1999/xlink">
    <defs></defs>
    <g id="Page-1" stroke="none" stroke-width="1" fill="none" fill-rule="evenodd">
        <g id="isotip-icon">
            <path d="M635.8,273.7 L362.7,273.7 C325.3,273.7 294.7,304.3 294.7,341.7 L294.7,549.6 C294.7,587 325.3,617.6 362.7,617.6 L419.3,617.6 L500.1,698.4 L580.9,617.6 L635.8,617.6 C673.2,617.6 703.8,587 703.8,549.6 L703.8,341.7 C703.8,304.3 673.2,273.7 635.8,273.7 L635.8,273.7 Z" id="tooltip" fill="#E67E22"></path>
            <path d="M698.5,315.4 C636.4,308.4 568.9,304.7 499.3,304.7 C429.7,304.7 362.2,308.4 300.1,315.4 C296.7,323.5 294.8,332.4 294.8,341.7 L294.8,358.4 C358,350.8 427.4,346.9 499.4,346.9 C571.4,346.9 640.8,350.9 704,358.4 L704,341.7 C703.8,332.4 701.9,323.5 698.5,315.4 L698.5,315.4 Z" id="electron-shadow" fill="#FFFFFF"></path>
            <path d="M416.1,490.4 C376.8,422.4 343.1,354.6 317,291.6 C303.4,304.1 294.8,322 294.8,341.8 L294.8,346.5 C318.7,399.9 347.4,455.7 379.6,511.6 C418.3,578.6 460.2,641.8 502.1,696.6 L532.1,666.6 C492.7,614.4 453.2,554.6 416.1,490.4 L416.1,490.4 Z" id="electron-shadow" fill="#FFFFFF"></path>
            <path d="M378.7,368.4 C346.8,423.6 318.5,478.7 294.7,531.5 L294.7,549.5 C294.7,567.3 301.7,583.6 313,595.8 C339.5,530.6 374.4,460.2 415.2,389.5 C438.7,348.8 463.2,309.9 488,273.6 L437.3,273.6 C417.2,304 397.6,335.8 378.7,368.4 L378.7,368.4 Z" id="electron-shadow" fill="#FFFFFF"></path>
            <path d="M725.1,559.7 L725.1,536.4 C769.4,530.4 810.3,522.7 846.5,513.3 C889.5,502.1 924.3,488.8 947.2,474.7 C964.9,463.8 975.4,452.3 975.4,443.9 C975.4,435.5 964.9,424 947.2,413.1 C924.3,399.1 889.5,385.7 846.5,374.5 C754,350.5 630.7,337.2 499.3,337.2 C367.9,337.2 244.5,350.6 152,374.6 C109,385.8 74.2,399.1 51.3,413.2 C33.7,424 23.1,435.5 23.1,444 C23.1,452.4 33.6,463.9 51.3,474.8 C74.2,488.8 109,502.2 152,513.4 C188.2,522.8 229.1,530.5 273.4,536.5 L273.4,559.8 C111.2,538.3 0,494.5 0,444 C0,372.3 223.5,314.3 499.3,314.3 C775.1,314.3 998.5,372.3 998.5,444 C998.5,494.5 887.3,538.3 725.1,559.7 L725.1,559.7 Z" id="electron" fill="#E67E22"></path>
            <path d="M719.9,595.4 C716.1,603.8 710.6,611.4 703.8,617.6 C716,649.2 726.1,679.4 733.9,707.6 C745.8,750.4 751.6,787.3 750.9,814.1 C750.3,834.8 745.7,849.7 738.4,853.9 C731.1,858.1 715.9,854.8 697.6,844.9 C674,832.1 645,808.7 613.8,777 C546.7,709 473.5,608.9 407.8,495.1 C342.1,381.3 291.8,267.9 266.3,175.9 C254.4,133.1 248.6,96.2 249.3,69.4 C249.9,48.7 254.5,33.8 261.8,29.6 C269.1,25.4 284.3,28.7 302.6,38.6 C326.2,51.4 355.2,74.8 386.4,106.5 C425.2,145.9 466.1,196 506.4,253.3 L534.5,253.3 C418.1,84.3 300.8,-19.7 250.2,9.5 C188.2,45.4 249.8,268 387.8,506.7 C525.8,745.4 688,909.8 750,874 C792.2,849.6 777.2,738.8 719.9,595.4 L719.9,595.4 Z" id="electron" fill="#E67E22"></path>
            <path d="M749.2,5.9 C687.2,-30 525,134.5 387,373.2 C249,611.9 187.3,834.5 249.4,870.3 C291.3,894.5 378.9,827.3 473.9,707.6 L457.5,691.2 C433.2,722 409,749.6 385.6,773.4 C354.4,805 325.4,828.5 301.8,841.3 C283.6,851.2 268.3,854.5 261,850.3 C253.7,846.1 249,831.2 248.5,810.5 C247.8,783.7 253.7,746.9 265.5,704 C291,611.9 341.2,498.6 407,384.8 C472.8,271 546,170.9 613,102.9 C644.2,71.3 673.2,47.8 696.8,35 C715,25.1 730.3,21.8 737.6,26 C744.9,30.2 749.6,45.1 750.1,65.8 C750.8,92.6 744.9,129.4 733.1,172.3 C725,201.7 714.3,233.2 701.4,266.3 C708.2,272.2 713.8,279.3 717.9,287.4 C776.1,142.5 791.6,30.5 749.2,5.9 L749.2,5.9 Z" id="electron" fill="#E67E22"></path>
        </g>
    </g>
</svg>