<?xml version="1.0" encoding="UTF-8" standalone="no"?>
<svg width="64px" height="60px" viewBox="0 0 64 60" version="1.1" xmlns="http://www.w3.org/2000/svg" xmlns:xlink="http://www.w3.org/1999/xlink">
    <defs></defs>
    <g id="Page-1" stroke="none" stroke-width="1" fill="none" fill-rule="evenodd">
        <g id="isotip-icon">
            <path d="M40.7511512,18.6348123 L23.2552553,18.6348123 C20.8592593,18.6348123 18.8988989,20.7235495 18.8988989,23.2764505 L18.8988989,37.4675768 C18.8988989,40.0204778 20.8592593,42.109215 23.2552553,42.109215 L26.8812813,42.109215 L32.0576577,47.6245734 L37.234034,42.109215 L40.7511512,42.109215 C43.1471471,42.109215 45.1075075,40.0204778 45.1075075,37.4675768 L45.1075075,23.2764505 C45.1075075,20.7235495 43.1471471,18.6348123 40.7511512,18.6348123 L40.7511512,18.6348123 Z" id="tooltip" fill="#E67E22"></path>
            <path d="M44.7615616,21.4812287 C40.7831832,21.003413 36.4588589,20.7508532 32,20.7508532 C27.5411411,20.7508532 23.2168168,21.003413 19.2384384,21.4812287 C19.0206206,22.0341297 18.8988989,22.6416382 18.8988989,23.2764505 L18.8988989,24.4163823 C22.9477477,23.8976109 27.3937938,23.6313993 32.0064064,23.6313993 C36.619019,23.6313993 41.0650651,23.9044369 45.1139139,24.4163823 L45.1139139,23.2764505 C45.1011011,22.6416382 44.9793794,22.0341297 44.7615616,21.4812287 L44.7615616,21.4812287 Z" id="electron-shadow-2" fill="#FFFFFF"></path>
            <path d="M26.6698699,33.4334471 C24.1521522,28.7918089 21.9931932,24.1638225 20.3211211,19.8634812 C19.4498498,20.7167235 18.8988989,21.9385666 18.8988989,23.2901024 L18.8988989,23.6109215 C20.43003,27.2559727 22.2686687,31.0648464 24.3315315,34.8805461 C26.8108108,39.4539249 29.4950951,43.7679181 32.1793794,47.5085324 L34.1013013,45.4607509 C31.5771772,41.8976109 29.0466466,37.8156997 26.6698699,33.4334471 L26.6698699,33.4334471 Z" id="electron-shadow-3" fill="#FFFFFF"></path>
            <path d="M24.2802803,25.105802 C22.2366366,28.8737201 20.4236236,32.6348123 18.8988989,36.2389078 L18.8988989,37.4675768 C18.8988989,38.6825939 19.3473473,39.7952218 20.0712713,40.6279863 C21.768969,36.1774744 24.0048048,31.3720137 26.6186186,26.5460751 C28.1241241,23.7679181 29.6936937,21.112628 31.2824825,18.6348123 L28.0344344,18.6348123 C26.7467467,20.7098976 25.4910911,22.8805461 24.2802803,25.105802 L24.2802803,25.105802 Z" id="electron-shadow" fill="#FFFFFF"></path>
            <path d="M46.4528529,38.116041 L46.4528529,36.5255973 C49.2908909,36.116041 51.9111111,35.5904437 54.2302302,34.9488055 C56.984985,34.1843003 59.2144144,33.2764505 60.6814815,32.3139932 C61.8154154,31.5699659 62.4880881,30.7849829 62.4880881,30.2116041 C62.4880881,29.6382253 61.8154154,28.8532423 60.6814815,28.109215 C59.2144144,27.1535836 56.984985,26.2389078 54.2302302,25.4744027 C48.3043043,23.8361775 40.4052052,22.9283276 31.9871872,22.9283276 C23.5691692,22.9283276 15.6636637,23.8430034 9.73773774,25.4812287 C6.98298298,26.2457338 4.75355355,27.1535836 3.28648649,28.116041 C2.15895896,28.8532423 1.47987988,29.6382253 1.47987988,30.21843 C1.47987988,30.7918089 2.15255255,31.5767918 3.28648649,32.3208191 C4.75355355,33.2764505 6.98298298,34.1911263 9.73773774,34.9556314 C12.0568569,35.5972696 14.6770771,36.1228669 17.5151151,36.5324232 L17.5151151,38.1228669 C7.12392392,36.6552901 0,33.665529 0,30.21843 C0,25.3242321 14.3183183,21.3651877 31.9871872,21.3651877 C49.6560561,21.3651877 63.967968,25.3242321 63.967968,30.21843 C63.967968,33.665529 56.844044,36.6552901 46.4528529,38.116041 L46.4528529,38.116041 Z" id="electron-2" fill="#E67E22"></path>
            <path d="M46.1151838,40.6003221 C45.8717403,41.173701 45.519388,41.6924723 45.0837523,42.1156805 C45.8653339,44.2726771 46.512381,46.3341105 47.0120807,48.2590252 C47.774443,51.1805269 48.1460146,53.6992983 48.1011698,55.5286498 C48.0627313,56.9416191 47.7680366,57.9586839 47.300369,58.2453733 C46.8327013,58.5320628 45.8589275,58.3068068 44.6865551,57.6310389 C43.1746432,56.7573187 41.3167854,55.1600491 39.3179866,52.9962266 C35.0192879,48.3545884 30.3297984,41.5218239 26.1207894,33.7539058 C21.9117804,25.9859877 18.6893579,18.2453733 17.0557243,11.9655099 C16.293362,9.04400815 15.9217904,6.52523682 15.9666352,4.69588529 C16.0050737,3.282916 16.2997684,2.26585116 16.767436,1.97916174 C17.2351037,1.69247232 18.2088775,1.91772829 19.3812498,2.59349621 C20.8931618,3.46721634 22.7510196,5.06448597 24.7498184,7.22830849 C27.2355041,9.91772829 29.8557243,13.3375235 32.4375061,17.2487863 L34.2377063,17.2487863 C26.7806492,5.71295013 19.2659345,-1.38602598 16.0242929,0.607148084 C12.0523209,3.05766003 15.9986673,18.2521993 24.8395081,34.5457146 C33.6803489,50.83923 44.0715401,62.061073 48.0435121,59.617387 C50.7470156,57.951858 49.7860546,50.388718 46.1151838,40.6003221 L46.1151838,40.6003221 Z" id="electron-3" fill="#E67E22"></path>
            <path d="M47.982197,0.335709839 C44.010225,-2.11480211 33.6190339,9.11386684 24.778193,25.4073822 C15.9373522,41.7008976 11.9845994,56.8954368 15.9629778,59.3391228 C18.6472621,60.9909999 24.2592741,56.4039692 30.3453602,48.2333208 L29.2947095,47.1138668 C27.7379528,49.2162559 26.1876024,51.100215 24.6885033,52.7247883 C22.6897045,54.8817849 20.8318467,56.4858805 19.3199348,57.3596006 C18.1539688,58.0353685 17.1737886,58.2606245 16.7061209,57.9739351 C16.2384533,57.6872457 15.9373522,56.6701808 15.9053201,55.2572115 C15.8604753,53.42786 16.2384533,50.9159146 16.9944092,47.987587 C18.6280429,41.7008976 21.8440589,33.9671092 26.0594743,26.1991911 C30.2748897,18.431273 34.9643792,11.5985085 39.2566715,6.95687025 C41.2554703,4.79987366 43.1133281,3.1957781 44.6252401,2.32205796 C45.791206,1.64629004 46.7713862,1.42103407 47.2390539,1.70772349 C47.7067215,1.99441291 48.0078226,3.01147776 48.0398547,4.42444704 C48.0846995,6.25379858 47.7067215,8.76574397 46.9507656,11.6940716 C46.4318467,13.7008976 45.7463612,15.8510682 44.9199348,18.1104539 C45.3555704,18.5131842 45.7143292,18.9978259 45.9769918,19.5507269 C49.7055203,9.65994192 50.6985133,2.01489073 47.982197,0.335709839 L47.982197,0.335709839 Z" id="electron" fill="#E67E22"></path>
        </g>
    </g>
</svg>